<svg width="27" height="27" viewBox="0 0 27 27" fill="none" xmlns="http://www.w3.org/2000/svg">
<path d="M19.4048 27C18.5332 27 17.6691 26.8459 16.824 26.5389C13.1012 25.1865 9.6457 22.9839 6.83085 20.1691C4.01601 17.3543 1.81339 13.8987 0.461067 10.1759C0.0265013 8.97956 -0.101743 7.74457 0.0800244 6.50515C0.250297 5.3442 0.699997 4.21715 1.38056 3.24583C2.06413 2.27023 2.97544 1.45878 4.01596 0.899242C5.12555 0.302577 6.33665 0 7.61572 0C8.01353 0 8.35735 0.277951 8.44072 0.666904L9.76503 6.84707C9.82499 7.12692 9.73898 7.4181 9.53665 7.62049L7.27375 9.88334C9.40846 14.1275 12.8723 17.5914 17.1165 19.7261L19.3794 17.4632C19.5818 17.2609 19.873 17.175 20.1528 17.2348L26.333 18.5592C26.722 18.6425 26.9999 18.9863 26.9999 19.3842C26.9999 20.6632 26.6973 21.8744 26.1006 22.984C25.541 24.0245 24.7296 24.9358 23.754 25.6194C22.7827 26.2999 21.6557 26.7496 20.4947 26.9199C20.1309 26.9733 19.7671 26.9999 19.4048 27ZM6.94159 1.72434C5.25443 1.91059 3.75694 2.79491 2.76251 4.2142C1.64427 5.81014 1.38351 7.7731 2.04709 9.59985C4.647 16.757 10.243 22.353 17.4001 24.9529C19.2268 25.6165 21.1898 25.3558 22.7858 24.2375C24.2051 23.243 25.0894 21.7456 25.2756 20.0584L20.2481 18.9811L17.8848 21.3443C17.6334 21.5958 17.2513 21.6626 16.9295 21.5114C11.9099 19.1532 7.84679 15.0901 5.48861 10.0705C5.33743 9.74866 5.40418 9.36656 5.65566 9.11513L8.01891 6.75189L6.94159 1.72434Z" fill="#FFA800"/>
</svg>
